<?xml version="1.0" encoding="iso-8859-1"?>
<!-- Generator: Adobe Illustrator 19.0.0, SVG Export Plug-In . SVG Version: 6.00 Build 0)  -->
<svg version="1.1" id="Layer_1" xmlns="http://www.w3.org/2000/svg" xmlns:xlink="http://www.w3.org/1999/xlink" x="0px" y="0px"
	 viewBox="0 0 512 512" style="enable-background:new 0 0 512 512;" xml:space="preserve">
<circle style="fill:#FF5B62;" cx="256" cy="256" r="256"/>
<g>
	<circle style="fill:#666666;" cx="196.347" cy="175.886" r="24.263"/>
	<circle style="fill:#666666;" cx="316.951" cy="175.886" r="24.263"/>
</g>
<path style="fill:#FAD24D;" d="M131.487,171.924L74.75,197.309l41.915,0.763c-1.109,4.424-1.7,9.048-1.7,13.819
	c0,31.26,25.339,56.603,56.603,56.603c5.644,0,11.094-0.831,16.239-2.369l3.889,31.731l15.39-41.901
	c12.859-10.374,21.085-26.258,21.085-44.068c0-31.26-25.344-56.603-56.603-56.603c-15.657,0-29.833,6.36-40.082,16.637V171.924z"/>
<path style="fill:#666666;" d="M109.529,189.919c-47.07,0-85.231,38.16-85.231,85.231s38.16,85.231,85.231,85.231
	s85.231-38.16,85.231-85.231S156.599,189.919,109.529,189.919z"/>
<path style="fill:#15BDB2;" d="M109.529,203.277c-39.693,0-71.873,32.179-71.873,71.868c0,39.693,32.179,71.868,71.873,71.868
	s71.868-32.179,71.868-71.868C181.398,235.451,149.224,203.277,109.529,203.277z"/>
<path style="fill:#21D0C3;" d="M91.179,344.648c5.862,1.543,12.009,2.369,18.355,2.369c39.693,0,71.868-32.179,71.868-71.868
	c0-37.693-29.019-68.607-65.933-71.623c-38.77,1.981-69.591,34.041-69.591,73.3c0,30.581,18.706,56.792,45.306,67.822H91.179z"/>
<path style="fill:#FAD24D;" d="M380.508,171.924l56.737,25.384l-41.915,0.763c1.109,4.424,1.7,9.048,1.7,13.819
	c0,31.26-25.339,56.603-56.603,56.603c-5.644,0-11.094-0.831-16.239-2.369l-3.889,31.731l-15.39-41.901
	c-12.859-10.374-21.08-26.258-21.08-44.068c0-31.26,25.339-56.603,56.603-56.603c15.657,0,29.833,6.36,40.082,16.637
	L380.508,171.924z"/>
<path style="fill:#666666;" d="M402.466,189.919c47.07,0,85.231,38.16,85.231,85.231s-38.16,85.231-85.231,85.231
	s-85.231-38.16-85.231-85.231S355.396,189.919,402.466,189.919z"/>
<path style="fill:#EDB937;" d="M202.45,270.627l15.03-20.886h78.334l15.03,20.886c-9.857-30.082,8.702-64.335,44.954-79.161
	c-47.786-26.978-150.507-26.978-198.293,0c36.253,14.826,54.811,49.074,44.95,79.161H202.45z"/>
<path style="fill:#666666;" d="M256.647,196.159c10.794,0,19.542,8.748,19.542,19.542c0,10.79-8.748,19.542-19.542,19.542
	c-10.79,0-19.542-8.748-19.542-19.542C237.105,204.907,245.853,196.159,256.647,196.159z"/>
<path style="fill:#21D0C3;" d="M256.647,200.117c8.605,0,15.584,6.979,15.584,15.584c0,8.609-6.979,15.584-15.584,15.584
	c-8.605,0-15.584-6.974-15.584-15.584C241.063,207.097,248.042,200.117,256.647,200.117z"/>
<path style="fill:#15BDB2;" d="M402.466,203.277c-39.693,0-71.873,32.179-71.873,71.868c0,39.693,32.179,71.868,71.873,71.868
	s71.873-32.179,71.873-71.868C474.339,235.451,442.159,203.277,402.466,203.277z"/>
<path style="fill:#21D0C3;" d="M384.116,344.648c5.862,1.543,12.009,2.369,18.355,2.369c39.693,0,71.868-32.179,71.868-71.868
	c0-37.693-29.019-68.607-65.933-71.623c-38.77,1.981-69.591,34.041-69.591,73.3c0,30.581,18.706,56.792,45.306,67.822H384.116z"/>
<path style="fill:#2BE3D7;" d="M113.603,209.66c-2.79,0-5.542,0.18-8.24,0.522c35.385,1.039,63.752,30.045,63.752,65.684
	c0,28.119-17.663,52.104-42.493,61.485c29.385-6.023,51.485-32.021,51.485-63.19c0-35.624-28.877-64.501-64.501-64.501
	L113.603,209.66L113.603,209.66z M406.382,209.66c-2.79,0-5.542,0.18-8.24,0.522c35.385,1.039,63.753,30.045,63.753,65.684
	c0,28.119-17.663,52.104-42.493,61.485c29.385-6.023,51.485-32.021,51.485-63.19c0-35.624-28.877-64.501-64.501-64.501
	L406.382,209.66L406.382,209.66z"/>
<g>
</g>
<g>
</g>
<g>
</g>
<g>
</g>
<g>
</g>
<g>
</g>
<g>
</g>
<g>
</g>
<g>
</g>
<g>
</g>
<g>
</g>
<g>
</g>
<g>
</g>
<g>
</g>
<g>
</g>
</svg>
