<svg id="Capa_1" enable-background="new 0 0 429.897 429.897" height="512" viewBox="0 0 429.897 429.897" width="512" xmlns="http://www.w3.org/2000/svg"><g><g id="Page-1_46_"><g transform="translate(1 1)"><g id="Icons_46_" transform="translate(0 5)"><g id="Shape_46_"><path d="m385.882 86.343-1.719 22.28-22.996 294.365c-1.338 8.316-8.789 14.246-17.193 13.683h-260.05c-8.405.563-15.855-5.367-17.193-13.683l-22.997-294.366-1.719-22.28h343.867z" fill="#283593"/></g><g><path d="m364.391 86.343-1.719 22.28-22.996 294.365c-1.338 8.316-8.789 14.246-17.193 13.683h-238.559c-8.405.563-15.855-5.367-17.193-13.683l-22.997-294.366-1.719-22.28h322.376z" fill="#3f51b5"/></g><g><path d="m414.538 65.639c.01 7.603-3.005 14.898-8.382 20.274-5.376 5.376-12.671 8.392-20.274 8.382h-343.867c-15.826 0-28.656-12.83-28.656-28.656s12.83-28.656 28.656-28.656h343.867c7.601-.002 14.89 3.016 20.265 8.391s8.393 12.664 8.391 20.265z" fill="#0377bc"/></g><g><path d="m393.046 65.639c.01 7.603-3.005 14.898-8.382 20.274-5.376 5.376-12.671 8.392-20.274 8.382h-322.375c-15.826 0-28.656-12.83-28.656-28.656s12.83-28.656 28.656-28.656h322.376c7.601-.002 14.89 3.016 20.265 8.391 5.374 5.375 8.392 12.664 8.39 20.265z" fill="#02a9f4"/></g></g><g id="Layer_10_46_"><g id="Rectangle-path_10_"><path d="m385.882 106.459h-343.867c-19.75 0-35.82-16.07-35.82-35.82s16.07-35.82 35.82-35.82h343.867c19.75 0 35.82 16.07 35.82 35.82s-16.07 35.82-35.82 35.82zm-343.867-57.312c-11.851 0-21.492 9.64-21.492 21.492s9.64 21.492 21.492 21.492h343.867c11.851 0 21.492-9.64 21.492-21.492s-9.64-21.492-21.492-21.492z"/></g><g><path d="m120.814 49.147c-1.571 0-3.152-.514-4.47-1.571-3.092-2.47-3.592-6.979-1.119-10.067l7.146-8.934c15.038-18.794 37.467-29.575 61.533-29.575h60.085c24.073 0 46.502 10.781 61.537 29.576l7.143 8.93c2.477 3.089 1.973 7.598-1.112 10.071-3.099 2.477-7.605 1.962-10.067-1.116l-7.15-8.934c-12.306-15.381-30.656-24.199-50.35-24.199h-60.085c-19.69 0-38.041 8.818-50.347 24.196l-7.146 8.934c-1.414 1.769-3.499 2.689-5.598 2.689z"/></g><g><path d="m82.245 428.897c-10.861 0-20.596-8.059-22.569-19.372l-24.801-309.66c-.161-1.99.521-3.96 1.875-5.429 1.357-1.469 3.264-2.305 5.264-2.305h343.867c2.001 0 3.911.836 5.261 2.305 1.357 1.469 2.043 3.439 1.882 5.429l-24.717 309.003c-2.148 12.446-12.754 20.589-24.542 19.967h-259.876c-.549.041-1.098.062-1.644.062zm-32.472-322.438 24.102 301.261c.721 3.932 4.817 7.101 9.49 6.807l260.64-.021c.175 0 .35.007.525.021 4.575.308 8.773-2.868 9.578-7.465l24.017-300.604h-328.352z"/></g><g><path d="m192.457 364.359c-3.956 0-7.164-3.204-7.164-7.164v-193.425c0-15.8 12.855-28.656 28.656-28.656 15.804 0 28.656 12.855 28.656 28.656 0 3.956-3.204 7.164-7.164 7.164s-7.164-3.208-7.164-7.164c0-7.902-6.429-14.328-14.328-14.328-7.902 0-14.328 6.426-14.328 14.328v193.425c0 3.96-3.208 7.164-7.164 7.164z"/></g><g><path d="m106.49 364.359c-3.956 0-7.164-3.204-7.164-7.164v-193.425c0-15.8 12.855-28.656 28.656-28.656s28.656 12.855 28.656 28.656c0 3.956-3.208 7.164-7.164 7.164s-7.164-3.208-7.164-7.164c0-7.902-6.426-14.328-14.328-14.328s-14.328 6.426-14.328 14.328v193.425c0 3.96-3.208 7.164-7.164 7.164z"/></g><g><path d="m278.424 364.359c-3.96 0-7.164-3.204-7.164-7.164v-193.425c0-15.8 12.852-28.656 28.656-28.656s28.656 12.855 28.656 28.656c0 3.956-3.204 7.164-7.164 7.164s-7.164-3.208-7.164-7.164c0-7.902-6.429-14.328-14.328-14.328-7.898 0-14.328 6.426-14.328 14.328v193.425c0 3.96-3.204 7.164-7.164 7.164z"/></g></g></g></g></g></svg>