<?xml version="1.0" encoding="iso-8859-1"?>
<!-- Generator: Adobe Illustrator 19.0.0, SVG Export Plug-In . SVG Version: 6.00 Build 0)  -->
<svg version="1.1" id="Layer_1" xmlns="http://www.w3.org/2000/svg" xmlns:xlink="http://www.w3.org/1999/xlink" x="0px" y="0px"
	 viewBox="0 0 511.982 511.982" style="enable-background:new 0 0 511.982 511.982;" xml:space="preserve">
<circle style="fill:#9EA7DB;" cx="255.991" cy="255.991" r="255.991"/>
<path style="fill:#8C95C9;" d="M504.45,317.877c-22.797,91.83-95.165,164.069-187.05,186.683L71.305,258.483l371.461-2.291
	L504.45,317.877z"/>
<g>
	<path style="fill:#FFD0A1;" d="M68.703,255.991c16.988-31.722,84.225-96.1,187.288-96.943
		c103.082,0.843,170.318,65.221,187.288,96.943c-16.97,31.74-84.206,96.1-187.288,96.961
		C152.927,352.09,85.691,287.731,68.703,255.991z"/>
	<path style="fill:#FFD0A1;" d="M443.279,255.991c-16.97,31.74-84.206,96.1-187.288,96.961
		c-103.063-0.861-170.3-65.221-187.288-96.961H443.279z"/>
</g>
<path style="fill:#F8F8F8;" d="M94.285,255.991c12.315,16.456,31.96,32.381,47.372,42.204
	c34.342,21.881,73.596,33.206,114.334,33.206s79.991-11.325,114.352-33.206c15.394-9.823,35.057-25.748,47.372-42.204
	c-12.315-16.438-31.978-32.363-47.372-42.186c-34.361-21.881-73.614-33.206-114.352-33.206s-79.991,11.325-114.334,33.206
	C126.245,223.628,106.6,239.553,94.285,255.991z"/>
<path style="fill:#FCBF8F;" d="M94.285,255.991c12.297-16.438,31.96-32.363,47.372-42.186
	c34.342-21.899,73.614-33.206,114.334-33.206c40.738,0,80.01,11.307,114.352,33.206c15.394,9.823,35.057,25.748,47.372,42.186
	C309.392,172.298,201.784,166.947,94.285,255.991z"/>
<circle style="fill:#428DAB;" cx="255.991" cy="255.991" r="65.569"/>
<circle style="fill:#59B8DE;" cx="255.991" cy="255.991" r="58.624"/>
<circle style="fill:#F8F8F8;" cx="231.343" cy="227.953" r="12.828"/>
<circle style="fill:#428DAB;" cx="255.991" cy="255.991" r="22.119"/>
<g>
</g>
<g>
</g>
<g>
</g>
<g>
</g>
<g>
</g>
<g>
</g>
<g>
</g>
<g>
</g>
<g>
</g>
<g>
</g>
<g>
</g>
<g>
</g>
<g>
</g>
<g>
</g>
<g>
</g>
</svg>
