<svg height="486pt" viewBox="-3 0 486 486.4" width="486pt" xmlns="http://www.w3.org/2000/svg"><path d="m252.199219 456c-4 0-8 0-12.800781 0l.800781-16h11.199219c117.601562 0 212.800781-95.199219 212.800781-212s-95.199219-212-212-212-212 95.199219-212 212c0 6.398438 0 12.800781.800781 19.199219l-16 1.601562c-.800781-7.199219-.800781-13.601562-.800781-20.800781 0-125.601562 102.402343-228 228-228 125.601562 0 228 102.398438 228 228s-102.398438 228-228 228zm0 0" fill="#5da364"/><path d="m120.199219 104h272v128h-272zm0 0" fill="#5da364"/><path d="m280.199219 168c0 13.253906-10.746094 24-24 24-13.253907 0-24-10.746094-24-24s10.746093-24 24-24c13.253906 0 24 10.746094 24 24zm0 0" fill="#edc17c"/><g fill="#538457"><path d="m160.199219 160h-16v-32h32v16h-16zm0 0"/><path d="m176.199219 208h-32v-32h16v16h16zm0 0"/><path d="m368.199219 208h-32v-16h16v-16h16zm0 0"/><path d="m368.199219 160h-16v-16h-16v-16h32zm0 0"/></g><path d="m184.199219 160h24v16h-24zm0 0" fill="#edc17c"/><path d="m304.199219 160h24v16h-24zm0 0" fill="#edc17c"/><path d="m8.199219 272h80v120h-80zm0 0" fill="#4a4a56"/><path d="m48.199219 272h16v56h-16zm0 0" fill="#676b7f"/><path d="m48.199219 344h16v24h-16zm0 0" fill="#676b7f"/><path d="m265.800781 485.601562-36.800781-36.800781 37.601562-38.402343 11.199219 12-26.402343 26.402343 26.402343 25.597657zm0 0" fill="#5da364"/><path d="m364.199219 307.199219-96.800781 28c-2.398438.800781-4.796876.800781-7.199219.800781l-92-16h56c13.601562 0 24-10.398438 24-24s-10.398438-24-24-24h-100c-2.398438 0-5.597657.800781-8 2.398438l-28 16v78.402343l90.402343 37.597657c3.199219 1.601562 7.199219 1.601562 11.199219.800781l187.199219-58.398438c11.199219-3.199219 17.601562-16 14.398438-27.199219-4-12-15.199219-18.402343-27.199219-14.402343zm0 0" fill="#efccbf"/><path d="m480.199219 228c0-125.601562-102.398438-228-228-228-125.597657 0-228 102.398438-228 228 0 7.199219 0 13.601562.800781 20.800781l16-1.601562c-.800781-6.398438-.800781-12.800781-.800781-19.199219 0-116.800781 95.199219-212 212-212s212 95.199219 212 212c0 114.398438-90.398438 208-204 212l17.601562-17.601562-11.199219-11.199219-37.601562 37.601562 37.601562 37.597657 11.199219-11.199219-19.199219-19.199219c123.199219-4 221.597657-104.800781 221.597657-228zm0 0"/><path d="m400.199219 96h-288v144h288zm-16 128h-256v-112h256zm0 0"/><path d="m256.199219 200c17.601562 0 32-14.398438 32-32s-14.398438-32-32-32c-17.597657 0-32 14.398438-32 32s14.402343 32 32 32zm0-48c8.800781 0 16 7.199219 16 16s-7.199219 16-16 16-16-7.199219-16-16 7.199219-16 16-16zm0 0"/><path d="m160.199219 144h16v-16h-32v32h16zm0 0"/><path d="m176.199219 192h-16v-16h-16v32h32zm0 0"/><path d="m368.199219 176h-16v16h-16v16h32zm0 0"/><path d="m352.199219 160h16v-32h-32v16h16zm0 0"/><path d="m184.199219 160h24v16h-24zm0 0"/><path d="m304.199219 160h24v16h-24zm0 0"/><path d="m48.199219 344h16v24h-16zm0 0"/><path d="m400.199219 327.199219c0-16-13.597657-29.597657-29.597657-29.597657-2.402343 0-5.601562 0-8 .796876l-96.800781 28c-.800781 0-2.402343.800781-3.199219 0l-22.402343-4c15.199219-8.796876 20.800781-28 12.800781-43.199219-5.601562-10.398438-16-16.800781-28-16.800781h-100.800781c-4 0-8 .800781-12 3.203124l-16 10.398438v-12h-96v136h96v-20l79.199219 32.800781c4.800781 2.398438 11.203124 2.398438 16 .800781l187.203124-58.402343c12.796876-3.199219 21.597657-14.398438 21.597657-28zm-320 56.800781h-64v-104h32v48h16v-48h16zm107.199219 14.398438c-1.597657.800781-4 .800781-5.597657 0l-85.601562-36v-68l24-13.597657c.800781-.800781 2.402343-.800781 4-.800781h100c8.800781 0 16 7.199219 16 16s-7.199219 16-16 16h-56v8l-1.597657 8 92 15.199219c3.199219.800781 7.199219 0 10.398438-.800781l96.800781-28c7.199219-2.398438 14.398438 2.402343 16.800781 9.601562 2.398438 7.199219-1.601562 14.398438-8.800781 16.800781zm0 0"/></svg>