<svg id="Layer_35" enable-background="new 0 0 64 64" height="512" viewBox="0 0 64 64" width="512" xmlns="http://www.w3.org/2000/svg"><path d="m62.22 41c.48-.532.78-1.229.78-2 0-1.654-1.346-3-3-3h-3v-19h-26v15h-2.515c-1.846 0-3.583.71-4.899 2h-2.586v-2h-20v22h20v-2h2.764l2.522 1.261c.966.483 2.049.739 3.13.739h1.584v9h26v-9h3c1.654 0 3-1.346 3-3 0-.771-.301-1.468-.78-2 .48-.532.78-1.229.78-2s-.301-1.468-.78-2c.48-.532.78-1.229.78-2s-.301-1.468-.78-2zm-1.22 6c0 .552-.448 1-1 1h-3v-2h3c.552 0 1 .448 1 1zm-11.92 14h-10.16c-.441-3.059-2.861-5.479-5.92-5.92v-8.184c2.303 3.659 6.367 6.104 11 6.104s8.697-2.445 11-6.104v8.184c-3.059.441-5.479 2.861-5.92 5.92zm-9.858-22.742c.531 1.587 2.014 2.742 3.778 2.742h2c1.103 0 2 .897 2 2v2h-4c-1.103 0-2-.897-2-2h-2c0 2.206 1.794 4 4 4v2h2v-2h4v-4c0-2.206-1.794-4-4-4h-2c-1.103 0-2-.897-2-2v-2h4c1.103 0 2 .897 2 2h2c0-2.206-1.794-4-4-4v-2h-2v2h-2.278c-.347-.595-.985-1-1.722-1h-2.521c2.023-1.897 4.706-3 7.521-3 6.065 0 11 4.935 11 11s-4.935 11-11 11-11-4.935-11-11h2c1.645 0 3.137-.666 4.222-1.742zm17.778 5.742v-2h3c.552 0 1 .448 1 1s-.448 1-1 1zm3-6c.552 0 1 .448 1 1s-.448 1-1 1h-3v-2zm-5-15.101c-1.956-.399-3.5-1.943-3.899-3.899h3.899zm-18.101-3.899c-.399 1.956-1.943 3.5-3.899 3.899v-3.899zm-3.899 5.92c3.059-.441 5.479-2.861 5.92-5.92h10.16c.441 3.059 2.861 5.479 5.92 5.92v8.184c-2.303-3.659-6.367-6.104-11-6.104-3.993 0-7.765 1.869-10.22 5h-.78zm-30 9.08h10v18h-10zm16 3.586-2.414 2.414 2.414 2.414v9.586h-4v-18h4zm10.416 14.414c-.772 0-1.545-.183-2.235-.528l-2.945-1.472h-3.236v-8.414l-1.586-1.586 1.586-1.586v-2.414h3.414l.535-.535c.944-.944 2.2-1.465 3.536-1.465h10.515c0 2.206-1.794 4-4 4h-3.414l-.535.535c-.945.944-2.2 1.465-3.536 1.465h-2.515v2h2.515c1.244 0 2.435-.33 3.485-.935v10.935zm3.584 5.101c1.956.399 3.5 1.943 3.899 3.899h-3.899zm18.101 3.899c.399-1.956 1.943-3.5 3.899-3.899v3.899zm8.899-9h-3v-2h3c.552 0 1 .448 1 1s-.448 1-1 1z"/><path d="m6.924 29.183c.523.415 1.161.632 1.812.632.32 0 .644-.053.958-.159.975-.332 1.704-1.123 1.952-2.117.281-1.123-.123-2.317-1.03-3.044-2.302-1.845-3.586-4.469-3.614-7.39-.05-4.923 3.697-9.315 8.531-10 3.84-.547 7.564 1.107 9.711 4.237l-3.658 3.658h11.414v-11.414l-3.474 3.474c-3.394-4.274-8.749-6.549-14.243-5.969-7.586.792-13.709 7.133-14.242 14.747-.366 5.224 1.777 10.089 5.883 13.345zm-3.889-13.204c.468-6.661 5.822-12.207 12.456-12.9.494-.052.987-.077 1.478-.077 4.629 0 8.982 2.274 11.614 6.149l.679 1.001 1.738-1.738v4.586h-4.586l1.353-1.353-.386-.665c-2.47-4.254-7.228-6.552-12.13-5.858-5.903.837-10.311 5.996-10.25 12 .035 3.532 1.585 6.704 4.364 8.931.299.239.433.632.341.999-.083.331-.328.597-.656.708-.147.049-.531.135-.884-.146-3.58-2.84-5.45-7.082-5.131-11.637z"/></svg>